{"title":"Unstoppable 2010 CAM XviD xDRive DvDrip","uid":6029607,"size":374056960,"categoryP":"video","categoryS":"movies","magnet":"?xt=urn:btih:0bba9ae38411299379e8b71bcc3de4af439cbdfb&amp;dn=Unstoppable+2010+CAM+XviD+xDRive+DvDrip&amp;tr=udp%3A%2F%2Ftracker.openbittorrent.com%3A80&amp;tr=udp%3A%2F%2Fopen.demonii.com%3A1337&amp;tr=udp%3A%2F%2Ftracker.coppersurfer.tk%3A6969&amp;tr=udp%3A%2F%2Fexodus.desync.com%3A6969","seeders":0,"leechers":0,"uploader":"Chew5661","files":1,"time":1292025988,"description":"Unstoppable 2010 DVDrip Now in 350 MB! \nThis is not fake. \n---------------------------------------\nenre:Action | Drama | Thriller\nLanguage:English\nIMDb:http://www.imdb.com/title/tt0477080/\nSource:.ELEKTRI4KA/Audio:Lu.Thx\n\n\nGeneral\nComplete name :Unstoppable 2010 Cam XviD Feel-Free\nFormat : AVI\nFormat/Info : Audio Video Interleave\nFile size : 1.38 GiB\nDuration : 1h 32mn\nOverall bit rate : 2 136 Kbps\nVideo #0\nCodec ID : XVID\nCodec ID/Hint : XviD\nDuration : 1h 32mn\nBit rate : 1 998 Kbps\nWidth : 640 pixels\nHeight : 272 pixels\nDisplay aspect ratio : 2.567\nFrame rate : 25.000 fps\nResolution : 24 bits\nColorimetry : 4:2:0\nScan type : Progressive\nBits/(Pixel*Frame) : 0.459\nStream size : 1.29 GiB (94%)\nWriting library : XviD 1.2.1 (UTC 2008-12-04)\nAudio #1\nID : 1\nFormat : MPEG Audio\nFormat version : Version 1\nFormat profile : Layer 3\nCodec ID : 55\nCodec ID/Hint : MP3\nDuration : 1h 32mn\nBit rate mode : Constant\nBit rate : 128 Kbps\nChannel(s) : 2 channels\nSampling rate : 44.1 KHz\nResolution : 16 bits\nStream size : 84.6 MiB (6%)\nAlignment : Split accross interleaves\nInterleave, duration : 40 ms (1.00 video frame)\nInterleave, preload duration : 500 ms\n\nPlot:\nWith an unmanned, half-mile-long freight train barreling toward a city, a veteran engineer and a young conductor race against the clock to prevent a catastrophe","torrent":{"xt":"urn:btih:0bba9ae38411299379e8b71bcc3de4af439cbdfb","amp;dn":"Unstoppable+2010+CAM+XviD+xDRive+DvDrip","amp;tr":["udp%3A%2F%2Ftracker.openbittorrent.com%3A80","udp%3A%2F%2Fopen.demonii.com%3A1337","udp%3A%2F%2Ftracker.coppersurfer.tk%3A6969","udp%3A%2F%2Fexodus.desync.com%3A6969"],"infoHash":"0bba9ae38411299379e8b71bcc3de4af439cbdfb","infoHashBuffer":{"type":"Buffer","data":[11,186,154,227,132,17,41,147,121,232,183,27,204,61,228,175,67,156,189,251]},"announce":[],"urlList":[]}}